<?xml version="1.0" standalone="no"?>
<!DOCTYPE svg PUBLIC "-//W3C//DTD SVG 20010904//EN"
 "http://www.w3.org/TR/2001/REC-SVG-20010904/DTD/svg10.dtd">
<svg version="1.0" xmlns="http://www.w3.org/2000/svg"
 width="512.000000pt" height="512.000000pt" viewBox="0 0 512.000000 512.000000"
 preserveAspectRatio="xMidYMid meet">

<g transform="translate(0.000000,512.000000) scale(0.100000,-0.100000)"
fill="#000000" stroke="none">
<path d="M942 5100 c-109 -29 -187 -74 -272 -160 -87 -86 -131 -163 -160 -276
-20 -76 -20 -118 -20 -2104 0 -1986 0 -2028 20 -2104 28 -112 73 -190 160
-276 86 -87 164 -132 276 -160 75 -19 116 -20 1614 -20 1498 0 1539 1 1614 20
114 29 190 73 276 160 87 87 132 165 160 276 19 75 20 116 20 1611 0 1660 2
1608 -53 1738 -53 129 -97 178 -590 672 -494 493 -543 537 -672 590 -126 53
-122 53 -1252 52 -999 0 -1051 -1 -1121 -19z m2221 -215 c127 -33 132 -37 660
-563 446 -446 501 -504 532 -564 18 -37 38 -91 44 -120 8 -37 11 -510 9 -1593
l-3 -1540 -32 -66 c-39 -80 -111 -150 -191 -187 l-57 -27 -1565 0 -1565 0 -66
32 c-80 39 -150 111 -187 191 l-27 57 0 2055 0 2055 27 57 c48 103 144 187
247 214 35 10 294 13 1081 13 887 1 1044 -1 1093 -14z"/>
<path d="M1528 3634 c-30 -16 -58 -61 -58 -94 0 -34 28 -78 60 -95 44 -23
1036 -23 1080 0 32 17 60 61 60 95 0 34 -28 78 -60 95 -43 22 -1041 22 -1082
-1z"/>
<path d="M1528 2654 c-30 -16 -58 -61 -58 -94 0 -12 7 -34 15 -50 33 -63 -24
-60 1075 -60 1099 0 1042 -3 1075 60 19 37 19 63 0 100 -33 63 24 60 -1077 60
-868 -1 -1007 -3 -1030 -16z"/>
<path d="M1528 1674 c-30 -16 -58 -61 -58 -94 0 -12 7 -34 15 -50 33 -63 -24
-60 1075 -60 1099 0 1042 -3 1075 60 19 37 19 63 0 100 -33 63 24 60 -1077 60
-868 -1 -1007 -3 -1030 -16z"/>
</g>
</svg>
