<?xml version="1.0" standalone="no"?>
<!DOCTYPE svg PUBLIC "-//W3C//DTD SVG 20010904//EN"
 "http://www.w3.org/TR/2001/REC-SVG-20010904/DTD/svg10.dtd">
<svg version="1.0" xmlns="http://www.w3.org/2000/svg"
 width="512.000000pt" height="512.000000pt" viewBox="0 0 512.000000 512.000000"
 preserveAspectRatio="xMidYMid meet">

<g transform="translate(0.000000,512.000000) scale(0.100000,-0.100000)"
fill="#000000" stroke="none">
<path d="M953 5106 c-133 -33 -247 -126 -311 -254 l-37 -76 0 -2216 0 -2216
37 -76 c66 -132 188 -228 326 -257 75 -16 3109 -16 3184 0 141 29 260 124 326
259 l37 75 3 1775 c1 976 0 1786 -3 1800 -8 33 -1138 1167 -1182 1186 -45 20
-2299 19 -2380 0z m2749 -803 l498 -498 0 -1691 0 -1691 -23 -34 c-12 -19 -38
-42 -57 -51 -33 -17 -128 -18 -1560 -18 -1432 0 -1527 1 -1560 18 -19 9 -45
32 -57 51 l-23 34 2 2148 3 2147 25 27 c52 57 -3 54 1170 55 l1085 0 497 -497z"/>
<path d="M1428 3490 c-112 -60 -109 -224 6 -279 43 -21 46 -21 1124 -19 1074
3 1081 3 1108 24 53 39 69 71 69 134 0 63 -16 95 -69 134 -27 21 -34 21 -1114
23 -1058 2 -1088 2 -1124 -17z"/>
<path d="M1428 2510 c-112 -60 -109 -224 6 -279 43 -21 46 -21 1124 -19 1074
3 1081 3 1108 24 53 39 69 71 69 134 0 63 -16 95 -69 134 -27 21 -34 21 -1114
23 -1058 2 -1088 2 -1124 -17z"/>
<path d="M1428 1530 c-112 -60 -109 -224 6 -279 43 -21 46 -21 1124 -19 1074
3 1081 3 1108 24 53 39 69 71 69 134 0 63 -16 95 -69 134 -27 21 -34 21 -1114
23 -1058 2 -1088 2 -1124 -17z"/>
</g>
</svg>
