<?xml version="1.0" standalone="no"?>
<!DOCTYPE svg PUBLIC "-//W3C//DTD SVG 20010904//EN"
 "http://www.w3.org/TR/2001/REC-SVG-20010904/DTD/svg10.dtd">
<svg version="1.0" xmlns="http://www.w3.org/2000/svg"
 width="1000.000000pt" height="600.000000pt" viewBox="0 0 1000.000000 600.000000"
 preserveAspectRatio="xMidYMid meet">

<g transform="translate(0.000000,600.000000) scale(0.100000,-0.100000)"
fill="#000000" stroke="none">
<path d="M5520 3920 c-13 -9 -13 -11 0 -20 9 -6 10 -10 3 -10 -6 0 -15 5 -19
11 -4 7 -17 1 -35 -17 -22 -21 -26 -31 -18 -45 6 -13 6 -19 -1 -19 -5 0 -10 6
-10 13 0 6 -5 4 -11 -6 -8 -14 -16 -580 -8 -607 1 -3 1 -8 0 -12 0 -5 3 -8 9
-8 6 0 10 -7 10 -15 0 -21 63 -78 92 -83 13 -2 51 -6 86 -9 l62 -5 1 -66 c1
-37 1 -284 -1 -548 l-2 -482 24 -16 c30 -19 71 -9 82 20 4 10 4 257 0 549 -8
609 -15 562 85 552 67 -6 118 16 155 66 20 27 21 42 24 325 2 163 1 310 -2
327 -4 17 -15 34 -27 40 -12 6 -22 15 -22 20 0 6 -15 20 -33 33 -31 21 -42 22
-231 22 -113 0 -204 -5 -213 -10z m450 -29 c0 -6 -4 -13 -10 -16 -5 -3 -10 1
-10 9 0 9 5 16 10 16 6 0 10 -4 10 -9z m-67 -66 c20 -9 39 -29 49 -51 15 -34
15 -38 -1 -68 -10 -17 -21 -30 -24 -28 -4 1 -97 2 -208 2 l-200 0 2 59 c2 51
6 61 26 72 12 7 23 16 23 20 0 4 68 8 150 8 118 2 157 -2 183 -14z m47 -246
c0 -6 4 -8 9 -5 12 8 8 -307 -4 -316 -5 -4 -10 -11 -11 -15 -4 -41 -9 -42
-203 -42 -175 0 -189 1 -205 20 -9 11 -14 24 -11 29 3 5 1 11 -3 14 -5 3 -12
69 -16 147 -6 112 -4 144 6 151 11 8 10 11 -1 15 -34 14 23 18 223 15 138 -2
216 -6 216 -13z"/>
<path d="M4165 3790 c3 -5 -3 -10 -14 -10 -12 0 -23 0 -26 0 -2 0 -20 -16 -40
-35 -19 -20 -35 -32 -35 -28 -1 4 -11 -10 -23 -32 -22 -40 -22 -40 -22 -620
l0 -580 25 -45 c14 -24 45 -58 68 -75 l44 -30 244 -3 244 -3 0 -124 0 -125
-89 0 c-49 0 -101 -4 -114 -9 -48 -18 -47 -83 1 -98 15 -4 273 -7 575 -5 l547
2 0 55 0 55 -70 0 -70 0 0 125 0 125 70 0 70 0 0 55 0 55 -680 0 c-476 0 -686
3 -703 11 -14 6 -30 21 -36 33 -7 14 -12 190 -14 541 -2 286 -7 533 -12 549
-6 21 -5 27 4 22 6 -4 11 -4 9 1 -1 4 2 22 6 40 15 62 22 63 616 63 l530 0 0
50 0 50 -556 0 c-367 0 -553 -3 -549 -10z m978 -77 c-7 -2 -21 -2 -30 0 -10 3
-4 5 12 5 17 0 24 -2 18 -5z m148 -1387 c2 -2 3 -59 1 -125 l-3 -121 -270 0
-269 0 0 125 0 125 268 0 c148 0 271 -2 273 -4z"/>
</g>
</svg>
