<?xml version="1.0" standalone="no"?>
<!DOCTYPE svg PUBLIC "-//W3C//DTD SVG 20010904//EN"
 "http://www.w3.org/TR/2001/REC-SVG-20010904/DTD/svg10.dtd">
<svg version="1.0" xmlns="http://www.w3.org/2000/svg"
 width="256.000000pt" height="171.000000pt" viewBox="0 0 256.000000 171.000000"
 preserveAspectRatio="xMidYMid meet">

<g transform="translate(0.000000,171.000000) scale(0.100000,-0.100000)"
fill="#000000" stroke="none">
<path d="M291 965 c0 -11 13 -69 28 -130 l27 -110 45 0 c41 0 45 2 56 35 9 30
12 32 18 15 13 -40 23 -50 50 -53 36 -5 47 8 54 60 6 45 27 52 24 8 -1 -14 1
-35 3 -48 l5 -23 163 3 c205 4 206 5 206 117 0 42 -5 83 -10 91 -9 14 -13 -1
-14 -60 0 -12 -17 -15 -88 -16 -59 -1 -88 2 -89 10 0 6 -2 33 -4 60 -4 52 -15
76 -15 33 0 -23 -5 -26 -37 -29 -50 -4 -57 -28 -8 -28 32 0 36 -3 33 -22 -3
-21 -8 -23 -56 -21 -29 2 -57 5 -62 8 -4 3 -11 -1 -14 -7 -3 -7 -2 17 1 55 7
78 -11 95 -22 19 -3 -26 -10 -53 -14 -60 -8 -13 -191 -19 -210 -8 -5 4 -11 0
-14 -6 -7 -21 -17 -4 -37 63 -10 35 -18 55 -19 44z"/>
<path d="M492 933 c12 -55 28 -80 28 -42 0 23 -26 89 -35 89 -1 0 2 -21 7 -47z"/>
<path d="M2133 964 c-3 -8 -3 -37 0 -65 4 -28 2 -49 -3 -49 -6 0 -10 4 -10 8
0 4 -15 6 -34 4 -30 -3 -35 0 -44 25 l-9 28 -13 -28 c-8 -16 -20 -27 -29 -25
-9 1 -22 -1 -28 -5 -16 -10 -16 -14 2 53 14 53 14 83 -1 38 -7 -22 -7 -22 -15
-3 -7 19 -8 19 -8 -2 -1 -18 -7 -23 -26 -23 -22 0 -25 -4 -25 -32 0 -31 -2
-33 -35 -33 -33 0 -35 2 -35 33 0 28 -3 32 -25 32 -20 0 -25 5 -25 25 0 31
-17 33 -22 3 -2 -19 -8 -22 -35 -20 -44 5 -42 -13 2 -28 19 -6 35 -15 35 -19
0 -5 11 -6 25 -4 24 5 24 4 27 -73 l3 -79 98 -2 c79 -2 99 0 103 12 8 19 38
19 54 0 10 -12 37 -15 121 -15 99 0 109 2 119 20 6 12 10 35 8 53 -3 29 -6 32
-40 35 l-38 3 -2 77 -2 77 -3 -63 c-4 -58 -6 -62 -20 -50 -14 11 -16 11 -8 -1
6 -11 4 -13 -8 -8 -10 4 -17 0 -20 -11 -4 -15 -11 57 -10 111 0 21 -16 22 -24
1z m-203 -96 c0 -34 -14 -88 -21 -88 -5 0 -9 23 -9 50 0 38 4 50 15 50 8 0 15
-6 15 -12z"/>
<path d="M381 950 c0 -14 4 -34 8 -45 8 -19 8 -19 16 4 4 13 3 26 -2 30 -6 3
-13 13 -16 21 -3 9 -5 5 -6 -10z"/>
<path d="M1216 953 c-6 -18 -15 -23 -39 -23 -18 0 -37 -4 -43 -8 -17 -11 -36
-52 -31 -65 3 -8 -8 -12 -29 -12 -35 0 -38 5 -35 60 l1 20 -9 -20 c-26 -55 -1
-144 46 -169 41 -21 230 -20 241 1 7 12 10 12 21 -1 8 -9 26 -16 42 -16 33 0
50 25 47 69 -2 16 2 30 7 31 6 0 11 -12 13 -27 7 -71 10 -74 55 -71 40 3 42 5
45 38 3 49 23 120 32 115 3 -2 8 -32 9 -67 2 -79 15 -91 89 -85 68 5 84 22 90
92 5 59 6 58 -45 38 -41 -15 -111 10 -119 42 -3 13 -1 32 5 43 6 12 7 23 2 26
-4 3 -22 -20 -39 -51 -27 -51 -33 -56 -64 -57 -33 -1 -38 3 -69 57 -31 54 -49
71 -49 45 0 -6 8 -20 17 -30 13 -14 15 -25 7 -46 -9 -26 -13 -27 -76 -28 -37
-1 -74 -4 -82 -7 -12 -5 -16 6 -21 51 -9 75 -11 81 -19 55z m-6 -98 c0 -22 -4
-25 -40 -25 -28 0 -40 4 -40 15 0 17 28 34 58 35 17 0 22 -6 22 -25z"/>
<path d="M1500 930 c0 -5 5 -10 10 -10 6 0 10 5 10 10 0 6 -4 10 -10 10 -5 0
-10 -4 -10 -10z"/>
<path d="M850 915 c0 -10 7 -15 18 -13 21 4 19 22 -2 26 -10 2 -16 -3 -16 -13z"/>
<path d="M1300 910 c0 -16 5 -21 23 -18 12 2 22 10 22 18 0 8 -10 16 -22 18
-18 3 -23 -2 -23 -18z"/>
</g>
</svg>
